<svg width="73" height="40" viewBox="0 0 73 40" fill="none" xmlns="http://www.w3.org/2000/svg">
<g id="turtle_right 4" clip-path="url(#clip0_518_200)">
<g id="&#208;&#161;&#208;&#187;&#208;&#190;&#208;&#185; 2">
<g id="&#208;&#161;&#208;&#187;&#208;&#190;&#208;&#185; 1">
<path id="Vector" d="M-1.52588e-05 17.867C0.131119 18.3653 0.247116 18.9086 0.393379 19.4219C0.985046 21.5583 2.2672 23.445 4.04453 24.7946C5.82186 26.1442 7.99692 26.8827 10.2383 26.8976C13.6326 26.8976 17.032 26.8976 20.4313 26.8976C20.8203 26.9331 21.1996 27.0378 21.551 27.2066C22.716 27.6552 23.8811 28.1087 25.026 28.6021C25.3066 28.7165 25.531 28.9346 25.6514 29.2101C26.3502 31.5879 27.6502 33.7507 29.429 35.4947C30.4881 36.5413 31.5422 37.5929 32.6064 38.6345C34.533 40.5233 36.8833 40.4436 38.6586 38.4351C38.7145 38.382 38.7735 38.3321 38.8351 38.2856C39.1529 38.5747 39.4505 38.8737 39.7833 39.1378C40.1961 39.4823 40.679 39.7353 41.1992 39.8797C41.7194 40.0241 42.2649 40.0565 42.7989 39.9748C43.3329 39.8931 43.8429 39.6991 44.2945 39.406C44.7462 39.1129 45.1289 38.7274 45.4169 38.2756C46.7232 36.1027 47.6916 33.7902 47.4344 31.1488C47.3688 30.4062 47.2175 29.6537 47.0964 28.8513C48.9272 28.8513 50.7681 28.8513 52.6141 28.8513C52.7502 28.8513 52.957 29.0755 53.0024 29.23C53.8149 31.909 55.3594 34.3147 57.4659 36.1824C58.3485 36.9998 59.211 37.842 60.0331 38.7192C61.9042 40.7277 65.6213 40.5333 66.8318 36.8802C66.8798 36.7526 66.9018 36.6169 66.8963 36.4809C66.8908 36.3449 66.858 36.2113 66.7998 36.088C66.7416 35.9646 66.6592 35.8539 66.5573 35.7623C66.4554 35.6708 66.3361 35.6001 66.2064 35.5545C65.964 35.4497 65.6896 35.4433 65.4424 35.5365C65.1953 35.6297 64.9951 35.8151 64.885 36.0529C64.7185 36.3369 64.6126 36.6559 64.4512 36.94C64.3355 37.174 64.1655 37.3778 63.9551 37.5346C63.7446 37.6915 63.4997 37.7971 63.2402 37.8427C62.9806 37.8884 62.7139 37.8729 62.4616 37.7974C62.2093 37.7219 61.9786 37.5887 61.7882 37.4085C60.2368 35.9894 58.7605 34.4923 57.3651 32.923C56.2744 31.6422 55.4768 30.1437 55.0268 28.53C54.5767 26.9162 54.4849 25.2255 54.7576 23.5734C54.797 23.3579 54.8492 23.1449 54.9139 22.9355C56.6791 22.9355 58.4091 22.9355 60.144 22.9355C60.3722 22.9631 60.5839 23.0668 60.7442 23.2295C61.8286 24.316 62.9129 25.3676 63.9569 26.464C65.2173 27.7664 65.9542 29.4779 66.0298 31.2784C66.0298 31.4428 66.0298 31.6073 66.0702 31.7768C66.0798 31.9139 66.1166 32.0478 66.1786 32.1708C66.2406 32.2939 66.3265 32.4036 66.4314 32.4939C66.5363 32.5841 66.6581 32.6531 66.79 32.6968C66.9219 32.7405 67.0612 32.7581 67.1999 32.7486C67.3387 32.7391 67.4742 32.7027 67.5987 32.6415C67.7232 32.5802 67.8343 32.4954 67.9257 32.3917C68.017 32.288 68.0867 32.1676 68.131 32.0373C68.1752 31.907 68.193 31.7693 68.1834 31.6322C68.1826 30.03 67.7751 28.4535 66.9982 27.0471C66.8872 26.8428 66.7813 26.6385 66.7712 26.6185C67.7194 25.3477 68.5768 24.1814 69.4695 23.0352C69.6313 22.8705 69.8326 22.7488 70.0546 22.6813C71.0051 22.3261 71.8075 21.666 72.3333 20.8067C72.8591 19.9473 73.0779 18.9385 72.9546 17.9417C72.8094 16.909 72.3082 15.9573 71.5355 15.2474C70.7628 14.5374 69.7659 14.1125 68.713 14.0444C68.385 13.9907 68.0915 13.8117 67.8959 13.546C66.1961 10.9407 64.1255 8.59079 61.7479 6.56869C57.3135 2.84846 51.8137 0.590249 46.0171 0.109681C38.1997 -0.543197 31.2547 1.67958 25.2075 6.62849C25.0966 6.7182 24.9806 6.79794 24.9251 6.70823C23.412 6.04539 21.899 5.27788 20.3204 4.75957C19.2111 4.41479 18.0535 4.24656 16.8908 4.26119C14.6161 4.26119 12.3516 4.32099 10.0719 4.5353C9.04668 4.7124 8.05175 5.03117 7.1164 5.48222C6.96606 5.52649 6.82762 5.60335 6.71117 5.70722C6.59472 5.81108 6.50319 5.93931 6.44327 6.08257C6.38334 6.22583 6.35653 6.3805 6.36479 6.5353C6.37305 6.6901 6.41618 6.84112 6.49101 6.97736C6.56062 7.10493 6.65582 7.21713 6.77078 7.30713C6.88575 7.39713 7.01806 7.46303 7.15966 7.50081C7.30125 7.53859 7.44916 7.54745 7.59435 7.52686C7.73952 7.50627 7.87894 7.45666 8.00407 7.38105C9.6653 6.60972 11.4913 6.24884 13.325 6.32947C15.4332 6.38927 17.5515 6.16998 19.6344 6.72817C22.169 7.40119 24.3923 8.91501 25.9314 11.0157C27.4705 13.1164 28.2317 15.6762 28.0874 18.2657C27.9475 19.9804 27.1781 21.5855 25.9241 22.7787C24.6701 23.972 23.0179 24.6712 21.2786 24.7446C17.4758 24.8244 13.673 24.8493 9.87521 24.7446C5.16456 24.62 1.54835 20.1944 2.19897 15.5744C2.42969 13.705 3.14933 11.9272 4.28698 10.4162C4.79134 9.75832 4.73586 9.12538 4.20629 8.74163C3.67672 8.35787 3.06645 8.52234 2.5621 9.17023C1.27187 10.8355 0.436501 12.8005 0.136162 14.8767C0.101433 15.0324 0.0559311 15.1856 -1.52588e-05 15.3352V17.867ZM30.357 16.1725H67.9262C68.1632 16.1725 68.4003 16.1725 68.6373 16.1725C69.1992 16.2079 69.7297 16.4406 70.1332 16.8286C70.5366 17.2166 70.7865 17.7343 70.8376 18.2883C70.8887 18.8423 70.7378 19.3962 70.412 19.8499C70.0862 20.3036 69.6071 20.6273 69.061 20.7626C68.7101 20.8259 68.3531 20.8493 67.9968 20.8323H29.8879C30.0443 19.2624 30.1956 17.7623 30.357 16.1725ZM34.1648 22.9554C35.9755 22.9554 37.6953 22.9554 39.4404 22.9554C39.6691 22.9844 39.881 23.0899 40.0405 23.2545C41.1047 24.2911 42.179 25.3227 43.2079 26.3943C44.5562 27.8116 45.3175 29.6771 45.3413 31.6223C45.4119 33.4862 44.6302 35.1109 43.8686 36.7057C43.2432 38.0264 41.9218 38.2507 40.8425 37.2041C39.7631 36.1575 38.699 35.2106 37.7306 34.1042C36.814 33.1261 36.0043 32.0553 35.3148 30.9096C33.9728 28.4821 33.5644 25.6571 34.1648 22.9554ZM34.069 3.81763C40.1343 1.51772 46.8464 1.51772 52.9116 3.81763C49.2349 7.62027 38.3812 7.90933 34.0791 3.81763H34.069ZM55.1661 4.78947C59.4323 6.88687 63.0411 10.0911 65.6062 14.0593C63.1802 14.0593 60.9006 14.0593 58.6259 14.0593C58.4848 14.0392 58.3492 13.9913 58.2271 13.9185C58.1049 13.8458 57.9988 13.7496 57.9148 13.6357C56.4017 11.5076 54.8887 9.3646 53.3756 7.22655C53.2294 7.02221 53.0982 6.80791 52.9721 6.61853L55.1661 4.78947ZM31.4615 14.0245L35.9149 7.705L42.4261 9.07554V14.0245H31.4615ZM55.5595 14.0245H44.6554V8.89612C46.7339 8.79524 48.7841 8.37662 50.7328 7.65516C50.8273 7.64705 50.9223 7.66137 51.0101 7.69691C51.0978 7.73245 51.1757 7.7882 51.2372 7.85949C52.6645 9.87295 54.0817 11.8964 55.5696 14.0145L55.5595 14.0245ZM32.1474 28.8712C32.5358 29.8231 32.8737 30.775 33.2973 31.6821C34.1775 33.4319 35.3957 34.9946 36.8833 36.2821C36.9617 36.3318 37.0271 36.3991 37.0741 36.4785C37.1212 36.5579 37.1485 36.6472 37.1539 36.7391C37.1593 36.831 37.1426 36.9228 37.1053 37.0071C37.0679 37.0914 37.0108 37.1657 36.9388 37.2241C36.7875 37.414 36.5971 37.57 36.3802 37.6817C36.1633 37.7934 35.9248 37.8583 35.6806 37.872C35.4364 37.8856 35.1921 37.8478 34.9638 37.761C34.7355 37.6742 34.5285 37.5405 34.3565 37.3686C33.5949 36.6609 32.8434 35.9432 32.1424 35.1807C31.0703 34.0626 30.0601 32.888 29.1163 31.6621C28.569 30.7731 28.1 29.8394 27.7142 28.8712H32.1474ZM52.5586 26.7381C50.4403 26.7381 48.4279 26.7381 46.4105 26.7381C46.209 26.7017 46.0288 26.5913 45.9062 26.4291C45.2656 25.7065 44.6655 24.934 44.0199 24.2413C43.6496 23.8621 43.259 23.5027 42.8498 23.1648L42.9708 23.0252H52.5535L52.5586 26.7381ZM29.6257 12.9579L26.5592 8.12363L31.7843 4.69976L34.0791 6.60856L29.6257 12.9579ZM31.8549 26.7631C29.3331 26.6086 26.9274 27.0571 24.4258 26.2248C26.004 25.5537 27.38 24.4911 28.4203 23.1398C28.513 23.039 28.6409 22.9767 28.7784 22.9654C29.8173 22.9654 30.8563 22.9654 31.8549 22.9654V26.7631ZM67.0587 22.9754L65.5457 24.6001L63.7149 22.9754H67.0587Z" fill="#464F6B" fill-opacity="0.85"/>
<path id="Vector_2" d="M14.0714 17.6676C14.5836 17.679 15.0923 17.5832 15.5643 17.3865C16.0363 17.1898 16.4609 16.8967 16.8101 16.5263C16.9286 16.4366 17.0265 16.3231 17.0975 16.1933C17.1685 16.0635 17.2109 15.9204 17.2219 15.7733C17.233 15.6261 17.2125 15.4784 17.1617 15.3396C17.1109 15.2009 17.031 15.0744 16.9272 14.9683C16.8235 14.8622 16.6982 14.779 16.5596 14.7242C16.421 14.6693 16.2722 14.644 16.1231 14.65C15.9739 14.6559 15.8277 14.6929 15.694 14.7586C15.5603 14.8243 15.4422 14.9172 15.3475 15.0312C14.4094 15.7539 13.9706 15.7539 13.0375 15.0312C12.944 14.9126 12.8258 14.8152 12.6909 14.7455C12.556 14.6759 12.4076 14.6356 12.2556 14.6275C12.1037 14.6194 11.9517 14.6435 11.81 14.6984C11.6683 14.7532 11.5402 14.8374 11.4342 14.9454C11.3283 15.0533 11.247 15.1825 11.1958 15.3241C11.1447 15.4657 11.1249 15.6165 11.1377 15.7664C11.1506 15.9162 11.1958 16.0616 11.2703 16.1927C11.3449 16.3238 11.447 16.4376 11.5698 16.5263C11.8897 16.8706 12.2755 17.1487 12.7049 17.3446C13.1343 17.5405 13.5988 17.6503 14.0714 17.6676Z" fill="#464F6B" fill-opacity="0.85"/>
<path id="Vector_3" d="M20.2548 15.1158C20.2676 15.4192 20.3064 15.7209 20.3708 16.0179C20.442 16.2388 20.5868 16.4293 20.7816 16.5585C20.9764 16.6878 21.2097 16.748 21.4436 16.7296C21.6774 16.7111 21.8981 16.6149 22.0696 16.4567C22.2411 16.2985 22.3534 16.0877 22.3882 15.8584C22.421 15.4387 22.421 15.0171 22.3882 14.5975C22.4039 14.4577 22.3894 14.3162 22.3458 14.1823C22.3021 14.0484 22.2303 13.9251 22.135 13.8206C22.0398 13.7161 21.9232 13.6327 21.793 13.5759C21.6627 13.5191 21.5218 13.4902 21.3795 13.4911C21.2364 13.4863 21.0938 13.5104 20.9605 13.5619C20.8271 13.6133 20.7058 13.6911 20.6039 13.7904C20.5019 13.8898 20.4215 14.0086 20.3676 14.1396C20.3136 14.2707 20.2873 14.4112 20.2901 14.5526C20.28 14.7402 20.28 14.9282 20.2901 15.1158H20.2548Z" fill="#464F6B" fill-opacity="0.85"/>
<path id="Vector_4" d="M5.96647 15.1258C5.96647 16.2671 6.29935 16.7655 7.05084 16.7455C7.80232 16.7256 8.09989 16.2472 8.09989 15.1457C8.11254 14.9349 8.11254 14.7236 8.09989 14.5128C8.0968 14.3714 8.06474 14.2321 8.00564 14.1032C7.94654 13.9744 7.86164 13.8588 7.75605 13.7633C7.65046 13.6678 7.52638 13.5945 7.3913 13.5477C7.25622 13.5009 7.11295 13.4817 6.97014 13.4911C6.83236 13.4949 6.69673 13.5258 6.57115 13.582C6.44557 13.6381 6.33255 13.7184 6.23867 13.8181C6.1448 13.9178 6.07193 14.035 6.02434 14.1628C5.97674 14.2907 5.95536 14.4266 5.96143 14.5626C5.95639 14.752 5.96647 14.9514 5.96647 15.1258Z" fill="#464F6B" fill-opacity="0.85"/>
<path id="Vector_5" d="M63.2055 30.8597C63.4777 30.8597 63.7387 30.7529 63.9312 30.5627C64.1237 30.3725 64.2318 30.1145 64.2318 29.8455C64.2318 29.5765 64.1237 29.3186 63.9312 29.1284C63.7387 28.9382 63.4777 28.8313 63.2055 28.8313C62.9332 28.8313 62.6722 28.9382 62.4797 29.1284C62.2872 29.3186 62.1791 29.5765 62.1791 29.8455C62.1791 30.1145 62.2872 30.3725 62.4797 30.5627C62.6722 30.7529 62.9332 30.8597 63.2055 30.8597Z" fill="#464F6B" fill-opacity="0.85"/>
<path id="Vector_6" d="M41.1552 35.3152C41.4334 35.3152 41.7002 35.206 41.897 35.0116C42.0937 34.8172 42.2042 34.5535 42.2042 34.2786C42.2042 34.0036 42.0937 33.74 41.897 33.5456C41.7002 33.3512 41.4334 33.2419 41.1552 33.2419C41.0174 33.2419 40.881 33.2688 40.7537 33.3209C40.6264 33.3729 40.5108 33.4493 40.4134 33.5456C40.316 33.6418 40.2387 33.7561 40.186 33.8819C40.1333 34.0076 40.1061 34.1424 40.1061 34.2786C40.1061 34.4147 40.1333 34.5495 40.186 34.6753C40.2387 34.801 40.316 34.9153 40.4134 35.0116C40.5108 35.1078 40.6264 35.1842 40.7537 35.2363C40.881 35.2884 41.0174 35.3152 41.1552 35.3152Z" fill="#464F6B" fill-opacity="0.85"/>
<path id="Vector_7" d="M38.1391 29.6835C37.8669 29.6881 37.6077 29.7994 37.4186 29.9929C37.2294 30.1864 37.1257 30.4462 37.1304 30.7151C37.1351 30.9841 37.2477 31.2403 37.4435 31.4272C37.6393 31.6141 37.9022 31.7165 38.1744 31.7119C38.3092 31.7096 38.4422 31.6811 38.5659 31.628C38.6895 31.5749 38.8013 31.4983 38.895 31.4025C38.9887 31.3067 39.0623 31.1936 39.1118 31.0697C39.1612 30.9458 39.1855 30.8134 39.1831 30.6803C39.1808 30.5471 39.152 30.4156 39.0983 30.2935C39.0445 30.1713 38.967 30.0608 38.87 29.9682C38.7731 29.8757 38.6587 29.8029 38.5332 29.754C38.4078 29.7052 38.2739 29.6812 38.1391 29.6835Z" fill="#464F6B" fill-opacity="0.85"/>
</g>
</g>
</g>
<defs>
<clipPath id="clip0_518_200">
<rect width="73" height="40" fill="white" transform="matrix(-1 0 0 1 73 0)"/>
</clipPath>
</defs>
</svg>
