<svg width="16" height="16" viewBox="0 0 16 16" fill="none" xmlns="http://www.w3.org/2000/svg">
<g id="key 4" clip-path="url(#clip0_243_105)">
<g id="&#208;&#161;&#208;&#187;&#208;&#190;&#208;&#185; 2">
<g id="&#208;&#161;&#208;&#187;&#208;&#190;&#208;&#185; 1">
<path id="Vector" d="M1.62067 16.0091H1.15782C1.10559 15.9875 1.05336 15.9641 1.00113 15.9479C0.763442 15.8756 0.549142 15.7418 0.379979 15.56C0.210815 15.3782 0.0928109 15.155 0.037942 14.9129C-0.0169268 14.6709 -0.00670678 14.4187 0.0675648 14.1819C0.141836 13.945 0.277516 13.7321 0.460832 13.5645L7.01284 7.01525C7.06441 6.97082 7.11986 6.93109 7.17853 6.89653L7.05246 6.71665C6.72059 6.2735 6.48294 5.76726 6.3541 5.22904C6.22526 4.69081 6.20795 4.13196 6.30325 3.5868C6.56979 1.9931 7.47029 0.861678 8.98852 0.295067C10.5068 -0.271543 11.9223 -0.0215154 13.1632 1.01457C13.7575 1.50743 14.2798 2.09383 14.8237 2.63346C15.3759 3.19824 15.7514 3.91141 15.9043 4.68585C15.9367 4.83694 15.9674 4.98804 15.998 5.13914V5.98096C15.9833 6.0189 15.9718 6.05801 15.9638 6.09788C15.8765 6.76939 15.6283 7.40996 15.2403 7.96523C14.8523 8.52049 14.3358 8.97406 13.7348 9.28743C13.1338 9.60081 12.466 9.76473 11.788 9.7653C11.11 9.76586 10.4419 9.60305 9.84039 9.29068C9.60086 9.16837 9.37754 9.01188 9.17402 8.88596L7.99257 10.0642L9.26948 11.3089L7.25957 13.3109C6.84534 12.8936 6.41311 12.4601 5.98807 12.0356L5.34692 12.6885L6.62382 13.9585L4.62472 15.9605L3.32801 14.6528C3.11909 14.8651 2.91558 15.0629 2.72107 15.2716C2.41311 15.6007 2.08713 15.9029 1.62067 16.0091ZM10.8417 7.16634C10.8922 7.19512 10.93 7.22031 10.9714 7.24009C11.3665 7.4276 11.8149 7.47106 12.2388 7.36293C12.6626 7.2548 13.0352 7.0019 13.2919 6.6481C13.5486 6.2943 13.6732 5.86192 13.6441 5.42596C13.615 4.99001 13.4341 4.57797 13.1326 4.26134C12.6842 3.79906 12.2321 3.34577 11.7656 2.89428C11.4878 2.62204 11.132 2.44299 10.7476 2.38203C10.3632 2.32106 9.96939 2.3812 9.6208 2.5541C9.27222 2.72699 8.98621 3.00404 8.80254 3.34675C8.61886 3.68946 8.54664 4.08081 8.59591 4.4664C8.62117 4.71373 8.70314 4.95193 8.83544 5.16252C9.64228 4.68045 10.2996 4.71463 10.8165 5.25426C11.0545 5.51458 11.1885 5.85306 11.1931 6.20551C11.1978 6.55796 11.0727 6.89986 10.8417 7.16634Z" fill="#9E9C9F"/>
</g>
</g>
</g>
<defs>
<clipPath id="clip0_243_105">
<rect width="16" height="16" fill="white"/>
</clipPath>
</defs>
</svg>
