<svg width="30" height="23" viewBox="0 0 30 23" fill="none" xmlns="http://www.w3.org/2000/svg">
<g id="bachelor_cap 2" clip-path="url(#clip0_518_166)">
<g id="&#208;&#161;&#208;&#187;&#208;&#190;&#208;&#185; 2">
<g id="&#208;&#161;&#208;&#187;&#208;&#190;&#208;&#185; 1">
<path id="Vector" d="M0 7.74244C0.189669 7.42564 0.47707 7.17878 0.819101 7.03889C3.12472 5.87639 5.42697 4.70829 7.72584 3.53457L13.2202 0.737182L14.4404 0.12115C14.5818 0.044841 14.7399 0.00488281 14.9006 0.00488281C15.0612 0.00488281 15.2193 0.044841 15.3607 0.12115C17.5112 1.21856 19.6618 2.31822 21.8124 3.42012C23.4978 4.28526 25.2202 5.1403 26.9225 6.00543C27.6809 6.38582 28.4292 6.77968 29.191 7.15334C29.3657 7.21641 29.5175 7.33028 29.6269 7.48027C29.7362 7.63026 29.7981 7.8095 29.8045 7.99491C29.8065 8.18985 29.7484 8.3807 29.6381 8.5415C29.5277 8.70231 29.3704 8.82528 29.1876 8.89371C27.5663 9.70836 25.9551 10.5297 24.3371 11.3511L15.8225 15.6768C15.6742 15.7509 15.5258 15.8215 15.3843 15.9057C14.9764 16.1548 14.6056 16.0067 14.2315 15.8148L8.8382 13.0612C6.09213 11.6608 3.34494 10.2571 0.596629 8.84995C0.371466 8.68987 0.170531 8.49827 0 8.28105L0 7.74244Z" fill="#575655"/>
<path id="Vector_2" d="M30 19.319C29.9584 19.3815 29.9213 19.4467 29.8888 19.5143C29.7574 19.884 29.5048 20.1986 29.172 20.4069C28.8391 20.6153 28.4455 20.7053 28.0551 20.6622C27.7071 20.6156 27.3799 20.4699 27.1126 20.2424C26.8454 20.0149 26.6495 19.7154 26.5483 19.3796C26.4545 19.046 26.4746 18.6906 26.6056 18.3697C26.7978 17.8715 27.0101 17.3834 27.1787 16.8818C27.2834 16.6024 27.3425 16.3081 27.3539 16.01C27.3742 14.6971 27.3539 13.3843 27.3539 12.0714C27.3445 11.9964 27.3607 11.9204 27.3998 11.8556C27.439 11.7909 27.4988 11.7412 27.5697 11.7146C28.0753 11.4722 28.5809 11.213 29.1236 10.9336V11.3106C29.1236 12.6908 29.1236 14.0743 29.1236 15.4545C29.0772 15.977 29.151 16.5032 29.3393 16.9929C29.5854 17.5248 29.7775 18.0836 29.9933 18.6289L30 19.319Z" fill="#575655"/>
<path id="Vector_3" d="M23.3764 13.8624V14.2361C23.3764 15.9192 23.3764 17.6225 23.3764 19.3158C23.3822 19.5487 23.3341 19.7799 23.2359 19.9912C23.1377 20.2026 22.992 20.3884 22.8101 20.5344C21.8191 21.3441 20.6575 21.9195 19.4124 22.2175C18.4554 22.4881 17.478 22.6806 16.4899 22.7932C15.5419 22.8622 14.5904 22.869 13.6416 22.8134C12.4548 22.7631 11.2812 22.5443 10.1562 22.1637C9.04925 21.8452 8.01292 21.3197 7.10225 20.6152C6.88355 20.4548 6.70768 20.2432 6.59012 19.999C6.47256 19.7548 6.41692 19.4855 6.42809 19.2148C6.46854 17.5519 6.42809 15.8855 6.42809 14.2226V13.8523C6.57977 13.923 6.69101 13.9735 6.79888 14.0307C9.0573 15.1752 11.3225 16.3097 13.564 17.4778C13.9708 17.7054 14.4292 17.825 14.8955 17.825C15.3618 17.825 15.8202 17.7054 16.227 17.4778C18.4944 16.3288 20.7573 15.182 23.0157 14.0374C23.1169 13.9836 23.2213 13.9365 23.3764 13.8624Z" fill="#575655"/>
</g>
</g>
</g>
<defs>
<clipPath id="clip0_518_166">
<rect width="30" height="22.8571" fill="white"/>
</clipPath>
</defs>
</svg>
