<svg width="16" height="13" viewBox="0 0 16 13" fill="none" xmlns="http://www.w3.org/2000/svg">
<g id="building 3" clip-path="url(#clip0_243_109)">
<g id="&#208;&#161;&#208;&#187;&#208;&#190;&#208;&#185; 2">
<g id="&#208;&#161;&#208;&#187;&#208;&#190;&#208;&#185; 1">
<path id="Vector" d="M0 11.4764H1.55989V3.67609H3.43723V11.4729H4.37248V0H11.6292V11.4729H12.5645V3.67609H14.4418V11.4782H15.9932V12.4287C15.9471 12.4287 15.8976 12.4287 15.8481 12.4287H0.109227H0V11.4764ZM10.4397 1.27613L10.4107 1.24987H8.7552L8.73131 1.27438V2.17415L8.75691 2.2004H10.4875L10.4397 1.27613ZM8.73301 4.61262L8.75861 4.63888H10.4107L10.4414 4.61262V3.6936H8.7296L8.73301 4.61262ZM7.28064 2.1759V1.27613L7.25675 1.25162H5.56544L5.53984 1.27788V2.2039H7.24651L7.28064 2.1759ZM6.56725 11.4817V9.43705H9.45323V11.4887H10.3765V8.47252H5.62176V11.4817H6.56725ZM5.54325 4.64413C6.09963 4.64413 6.64064 4.64413 7.18165 4.64413C7.21579 4.64413 7.27723 4.59687 7.27723 4.57061C7.27723 4.27827 7.27723 3.98593 7.27723 3.69535H5.54496L5.54325 4.64413ZM8.73472 7.0791C9.28597 7.0791 9.82528 7.0791 10.3663 7.0791C10.4004 7.0791 10.4653 7.02484 10.4653 6.99333C10.4653 6.70799 10.4653 6.42266 10.4653 6.13032H8.73472V7.0791ZM5.5552 7.04934C5.57909 7.06335 5.58763 7.07385 5.59616 7.07385C6.12693 7.07385 6.65941 7.07385 7.19019 7.07385C7.21184 7.06726 7.23151 7.05513 7.24734 7.03859C7.26316 7.02205 7.27462 7.00166 7.28064 6.97932C7.28917 6.69749 7.28064 6.41566 7.28064 6.12507H5.5552V7.04934Z" fill="#9D9B9E"/>
</g>
</g>
</g>
<defs>
<clipPath id="clip0_243_109">
<rect width="16" height="12.4444" fill="white"/>
</clipPath>
</defs>
</svg>
