<svg width="219" height="72" viewBox="0 0 219 72" fill="none" xmlns="http://www.w3.org/2000/svg">
<g id="turtle_main 1" clip-path="url(#clip0_511_218)">
<g id="&#208;&#161;&#208;&#187;&#208;&#190;&#208;&#185; 2">
<g id="&#208;&#161;&#208;&#187;&#208;&#190;&#208;&#185; 1">
<path id="Vector" d="M90.2168 0C87.2108 1.64546 84.4663 3.7284 82.0732 6.18053C77.4994 11.6442 76.1926 18.2071 75.4595 24.9929C75.093 29.6849 75.093 34.3983 75.4595 39.0903C75.7942 45.7805 80.2405 49.1575 85.627 51.6106C93.4678 55.1947 101.835 55.9752 110.329 55.7522C117.579 55.7318 124.746 54.2133 131.381 51.292C137.596 48.3929 140.943 43.7416 140.943 36.6212C140.943 29.5009 141.038 22.8265 139.206 16.1044C138.432 12.7923 136.937 9.69163 134.827 7.02352C132.717 4.35541 130.044 2.18565 126.998 0.669027C126.669 0.469702 126.354 0.246073 126.058 0L139.588 0C153.437 8.28319 157.772 21.5363 158.537 36.5257C158.486 37.1954 158.648 37.8642 159 38.4364C159.352 39.0085 159.876 39.4548 160.497 39.7115C161.693 40.3305 162.706 41.2524 163.434 42.385C164.162 43.5177 164.58 44.8215 164.646 46.1662C164.712 47.5108 164.424 48.8493 163.811 50.0479C163.197 51.2465 162.28 52.2632 161.15 52.9965C160.433 53.4743 159.668 53.8726 158.84 54.3504C160.656 56.8035 162.553 59.1292 164.242 61.6938C166.664 65.2619 165.581 67.5398 161.31 68.0655C152.766 69.1587 144.089 67.7243 136.353 63.9398C135.645 63.5824 134.873 63.3701 134.082 63.3154C133.291 63.2606 132.498 63.3646 131.747 63.6212C120.735 67.046 109.436 67.3646 98.0575 66.3133H97.6751C96.5276 66.1858 95.444 65.8513 95.6193 64.4496C95.7946 63.0478 96.926 62.8566 98.1691 62.9841C106.091 63.8929 114.099 63.7321 121.978 62.5062C124.401 62.108 126.759 61.4389 129.166 60.9133C130.759 60.6266 130.616 60.1009 129.803 59.0018C127.875 56.4212 127.923 56.4053 124.735 57.154C113.591 59.8792 101.945 59.8026 90.8383 56.931C89.0534 56.469 87.8263 56.5009 86.9657 58.3009C86.5543 59.0073 86.0852 59.6786 85.5633 60.308C87.0711 60.9163 88.6351 61.3752 90.2327 61.6779C91.3323 61.9965 92.4001 62.4743 92.0335 63.8124C91.667 65.1504 90.5355 65.4053 89.3084 64.8796C87.1711 63.9733 84.8577 63.5572 82.5383 63.6619C80.219 63.7667 77.9526 64.3896 75.9058 65.485C69.3718 68.5274 62.1366 68.6708 54.997 68.1929C52.2718 67.9858 50.7419 66.4566 50.7419 64.3858C50.7805 63.6572 51.0608 62.9622 51.5388 62.4106C53.4671 59.7186 55.4114 57.0584 57.3715 54.3504C56.6225 53.9044 55.9213 53.5381 55.252 53.108C54.068 52.3684 53.1051 51.324 52.4642 50.0842C51.8233 48.8445 51.5281 47.4551 51.6096 46.062C51.6912 44.6689 52.1463 43.3235 52.9274 42.1668C53.7085 41.0102 54.7867 40.085 56.0488 39.4885C56.5378 39.322 56.9587 38.9995 57.2466 38.5707C57.5345 38.1419 57.6736 37.6305 57.6425 37.115C58.0887 28.5133 59.6505 20.1664 64.0171 12.5841C66.9998 7.30832 71.3775 2.9547 76.6707 0L90.2168 0ZM162.266 64.7044C160.099 61.646 158.027 58.9381 156.178 55.9434C155.897 55.4252 155.473 54.9992 154.955 54.7166C154.438 54.4341 153.85 54.3069 153.262 54.3504C147.365 54.3504 141.469 54.3504 135.572 54.3504C134.138 54.3504 131.891 53.8088 131.54 55.0035C131.19 56.1982 132.959 57.6796 134.202 58.6354C137.331 60.8926 140.871 62.5161 144.624 63.4142C150.352 65.0608 156.359 65.5002 162.266 64.7044ZM72.5591 54.4301C69.1805 54.4301 65.786 54.4301 62.4075 54.4301C61.8497 54.4301 61.1007 54.1593 60.8138 54.8761C59.4274 58.1735 56.7181 60.5469 54.758 63.446C53.9133 64.6566 54.487 64.8 55.5867 64.9274C61.0782 65.4449 66.6181 64.9042 71.9057 63.3345C76.352 62.1239 80.6708 60.6106 83.8103 56.9628C84.3043 56.3894 85.3083 55.7841 84.9258 55.0354C84.5434 54.2867 83.3322 54.4142 82.5354 54.4142C79.1887 54.4142 75.8739 54.4301 72.5591 54.4301ZM138.154 50.9735C144.656 50.9735 150.6 50.9735 156.529 50.9735C157.124 51.029 157.725 50.9594 158.292 50.7691C158.859 50.5788 159.38 50.272 159.821 49.8684C160.262 49.4648 160.614 48.9734 160.854 48.4258C161.094 47.8781 161.217 47.2863 161.214 46.6885C161.256 46.0738 161.166 45.4572 160.951 44.8799C160.736 44.3025 160.399 43.7778 159.965 43.3406C159.531 42.9034 159.008 42.5638 158.432 42.3446C157.856 42.1253 157.24 42.0314 156.624 42.069C152.784 41.9894 148.943 42.069 145.118 42.069C144.449 42.069 143.827 42.069 143.525 42.9133C142.499 46.0375 140.643 48.8238 138.154 50.9735ZM77.85 50.9735C75.5548 48.5644 73.709 45.7646 72.3997 42.7062C72.081 41.9416 71.4595 42.1009 70.8061 42.1009C66.9653 42.1009 63.1246 42.1009 59.2839 42.1009C58.7196 42.0967 58.16 42.2039 57.6373 42.4164C57.1145 42.6288 56.6389 42.9424 56.2376 43.339C55.8364 43.7356 55.5174 44.2075 55.2991 44.7276C55.0807 45.2478 54.9672 45.8059 54.9651 46.3699C54.9009 46.9394 54.9557 47.5161 55.126 48.0633C55.2962 48.6106 55.5783 49.1166 55.9542 49.5493C56.3302 49.982 56.792 50.332 57.3102 50.5771C57.8285 50.8223 58.3921 50.9572 58.9652 50.9735C65.1167 51.0531 71.2045 50.9735 77.85 50.9735ZM62.8697 30.2655C65.5151 29.9788 67.9375 29.6761 70.3758 29.4531C71.4913 29.3575 71.7782 28.7522 71.9694 27.7805C72.2085 25.5504 72.5431 23.3204 72.8459 21.1062C73.5153 16.0885 73.4834 16.1363 68.8777 14.3044C67.6984 13.8425 67.1247 14.0336 66.5669 15.1168C64.2825 19.5248 62.671 24.2497 61.786 29.1345C61.4832 30.5363 62.2959 30.2655 62.8697 30.2655ZM153.23 30.2655C154.314 30.5204 154.584 30.1699 154.409 29.1504C153.775 25.2232 152.634 21.3947 151.015 17.7611C149.182 13.5717 149.15 13.5876 145.023 15.2761L143.732 15.8018C143.586 15.839 143.449 15.9067 143.331 16.0005C143.213 16.0943 143.116 16.2121 143.047 16.346C142.977 16.48 142.937 16.6271 142.929 16.7776C142.921 16.9282 142.944 17.0788 142.999 17.2195C143.703 20.7931 144.145 24.4134 144.321 28.0513C144.321 28.9593 144.815 29.2938 145.676 29.3735C148.21 29.6124 150.744 29.8991 153.23 30.154V30.2655ZM149.804 38.5965H151.796C155.477 38.5965 155.636 38.3894 155.174 34.7257C155.174 34.1044 154.951 33.7858 154.282 33.7062C151.333 33.3876 148.369 33.0372 145.421 32.6708C144.736 32.5912 144.544 32.8619 144.449 33.531C143.764 38.1186 144.146 38.5965 148.624 38.5965H149.804ZM66.5669 38.5965C67.9534 38.5965 69.3558 38.5965 70.7423 38.5965C71.5232 38.5965 72.081 38.4053 71.9216 37.5133C71.6188 35.9204 72.6388 34.1522 71.3479 32.7345C71.2523 32.623 70.8539 32.7345 70.5829 32.7345C68.0172 33.0053 65.4673 33.3558 62.9015 33.5628C61.5788 33.6743 61.1485 34.1681 61.1804 35.5221C61.1804 38.5805 61.1804 38.5965 64.1924 38.5965H66.5669ZM135.843 2.66018C138.208 5.46951 140.113 8.63635 141.485 12.0425C141.628 12.4088 141.787 12.9027 142.281 12.7115C143.716 12.1858 145.118 11.6124 146.505 10.9912C146.919 10.8159 146.648 10.4018 146.505 10.1628C143.888 6.54264 140.135 3.90157 135.843 2.66018ZM80.5114 2.66018C77.3911 3.50928 74.546 5.15629 72.2563 7.43894C68.7821 10.7363 68.9096 11.1664 73.4196 12.6159C74.2643 12.8867 74.6149 12.7115 74.9017 11.9469C76.2475 8.54443 78.1425 5.38567 80.5114 2.59646V2.66018Z" fill="#46385F"/>
<path id="Vector_2" d="M171.86 72C174.346 68.4048 176.644 64.683 178.744 60.8496C184.176 50.1248 186.911 38.2385 186.713 26.2195C185.772 26.4266 185.501 27.1434 185.119 27.6372C183.653 29.3416 182.282 31.1416 180.8 32.8301C179.652 34.2112 178.01 35.0891 176.223 35.2766C174.437 35.4641 172.648 34.9463 171.238 33.8337C170.524 33.2913 169.925 32.6129 169.475 31.8377C169.025 31.0625 168.733 30.2058 168.616 29.3172C168.499 28.4286 168.559 27.5255 168.793 26.6603C169.027 25.7951 169.43 24.9847 169.979 24.2761C175.589 17.193 181.305 10.1629 187.127 3.18587C187.678 2.51364 188.36 1.95913 189.13 1.55533C189.9 1.15152 190.744 0.906673 191.61 0.83534C192.477 0.764007 193.349 0.867648 194.175 1.1401C195.001 1.41255 195.764 1.84824 196.418 2.42127C203.175 7.86906 209.89 13.3646 216.562 18.908C217.932 20.045 218.798 21.677 218.972 23.4489C219.145 25.2208 218.611 26.9894 217.486 28.3699C216.436 29.7664 214.879 30.6953 213.151 30.9574C211.423 31.2195 209.661 30.7938 208.243 29.7717C205.709 27.9876 203.35 25.9806 200.546 23.7823C201.115 40.6491 196.971 57.3409 188.577 71.9841L171.86 72Z" fill="#46385F"/>
<path id="Vector_3" d="M38.439 0C37.0525 4.18938 35.2517 8.25133 34.2636 12.5681C33.3829 15.8908 32.7701 19.2786 32.4309 22.6991C33.1959 22.9221 33.419 22.3009 33.7536 21.9982C35.5704 20.4053 37.3234 18.6212 39.1561 17.0124C39.8138 16.3996 40.586 15.9224 41.4284 15.6083C42.2709 15.2942 43.167 15.1493 44.0656 15.1818C44.9642 15.2144 45.8475 15.4238 46.6649 15.798C47.4824 16.1723 48.218 16.704 48.8296 17.3628C49.4484 18.0026 49.9336 18.759 50.2569 19.588C50.5803 20.417 50.7354 21.3021 50.7131 22.1916C50.6909 23.0812 50.4918 23.9574 50.1273 24.7692C49.7629 25.5811 49.2405 26.3123 48.5906 26.9204C42.2159 33.1009 35.8413 39.2496 29.3233 45.3027C28.6712 45.975 27.8843 46.502 27.0141 46.8489C26.1439 47.1959 25.2102 47.3551 24.2742 47.316C23.3381 47.2769 22.4209 47.0404 21.5828 46.622C20.7446 46.2037 20.0044 45.6129 19.4107 44.8885C13.663 38.9097 7.92049 32.8779 2.18334 26.7929C1.50457 26.1567 0.961541 25.3899 0.58691 24.5385C0.212278 23.6872 0.0137835 22.7688 0.00336249 21.8388C-0.00705854 20.9088 0.17081 19.9863 0.52627 19.1267C0.88173 18.2672 1.40744 17.4884 2.07178 16.8372C2.7301 16.1772 3.51679 15.6592 4.38326 15.315C5.24974 14.9709 6.1776 14.808 7.10954 14.8364C8.04149 14.8647 8.95771 15.0838 9.80164 15.4799C10.6456 15.8761 11.3993 16.4411 12.0162 17.1398L18.3908 23.2248C19.2024 15.2953 20.9847 7.4954 23.6977 0L38.439 0Z" fill="#46385F"/>
<path id="Vector_4" d="M108.145 39.823C107.177 39.8462 106.215 39.6669 105.32 39.2965C104.426 38.9262 103.618 38.373 102.95 37.6725C102.78 37.5348 102.64 37.3635 102.54 37.1694C102.439 36.9753 102.379 36.7625 102.364 36.5444C102.349 36.3262 102.379 36.1073 102.453 35.9012C102.526 35.6952 102.641 35.5065 102.791 35.3469C102.906 35.1594 103.062 34.9999 103.246 34.8801C103.431 34.7602 103.64 34.683 103.858 34.654C104.076 34.6251 104.298 34.645 104.508 34.7125C104.718 34.78 104.909 34.8933 105.07 35.0442C105.464 35.4734 105.943 35.8161 106.476 36.0505C107.01 36.285 107.586 36.406 108.169 36.406C108.752 36.406 109.329 36.285 109.862 36.0505C110.396 35.8161 110.875 35.4734 111.269 35.0442C111.434 34.8792 111.634 34.7525 111.854 34.6732C112.073 34.5938 112.308 34.5637 112.54 34.585C112.773 34.6063 112.998 34.6784 113.2 34.7963C113.401 34.9142 113.575 35.075 113.707 35.2672C114.408 36.0955 114.074 36.8601 113.42 37.5451C112.746 38.2678 111.929 38.8432 111.021 39.2352C110.113 39.6272 109.134 39.8273 108.145 39.823Z" fill="#46385F"/>
<path id="Vector_5" d="M92.5754 35.0443C92.5754 35.5062 92.5754 35.9682 92.5754 36.4301C92.5926 36.6611 92.5592 36.8931 92.4776 37.1098C92.3959 37.3266 92.2679 37.523 92.1025 37.6852C91.9372 37.8475 91.7384 37.9717 91.52 38.0493C91.3017 38.1269 91.069 38.156 90.8383 38.1345C89.8024 38.1345 89.3403 37.3699 89.2446 36.3823C89.149 35.3947 89.2446 34.5345 89.2446 33.6106C89.2446 32.6867 89.6909 31.7947 90.8383 31.8106C91.9857 31.8266 92.432 32.5752 92.432 33.6266C92.5049 34.0963 92.5527 34.5695 92.5754 35.0443Z" fill="#46385F"/>
<path id="Vector_6" d="M126.982 35.0442C126.982 35.7292 126.982 36.3186 126.903 36.9079C126.855 37.2845 126.661 37.6272 126.363 37.8625C126.065 38.0978 125.687 38.2069 125.309 38.1663C124.977 38.2151 124.639 38.1373 124.361 37.9485C124.084 37.7597 123.887 37.4736 123.811 37.1469C123.5 35.7354 123.5 34.2734 123.811 32.8619C123.873 32.5329 124.061 32.241 124.335 32.0478C124.608 31.8546 124.946 31.7752 125.277 31.8265C126.09 31.8265 126.727 32.1132 126.871 32.9893C126.946 33.6717 126.983 34.3577 126.982 35.0442Z" fill="#46385F"/>
</g>
</g>
</g>
<defs>
<clipPath id="clip0_511_218">
<rect width="219" height="72" fill="white"/>
</clipPath>
</defs>
</svg>
