<svg width="30" height="20" viewBox="0 0 30 20" fill="none" xmlns="http://www.w3.org/2000/svg">
<g id="group 1" clip-path="url(#clip0_518_157)">
<g id="&#208;&#161;&#208;&#187;&#208;&#190;&#208;&#185; 2">
<g id="&#208;&#161;&#208;&#187;&#208;&#190;&#208;&#185; 1">
<path id="Vector" d="M30 16.9543C29.9215 17.0831 29.8084 17.1867 29.674 17.253C29.5396 17.3193 29.3893 17.3457 29.2406 17.329C27.2977 17.329 25.357 17.329 23.3531 17.329C23.5266 14.9056 22.9805 12.7027 21.3516 10.8412C22.0087 10.3598 22.7633 10.0318 23.5609 9.88102C24.3585 9.73024 25.1792 9.76039 25.9639 9.9693C26.7486 10.1782 27.4777 10.5607 28.0986 11.0891C28.7196 11.6175 29.2169 12.2788 29.5547 13.0252C29.7105 13.4485 29.8412 13.8808 29.9461 14.3199C29.9609 14.3692 29.9789 14.4176 30 14.4645V16.9543Z" fill="#575654"/>
<path id="Vector_2" d="M0 14.8796C0.046875 14.6827 0.0960938 14.4859 0.142969 14.2891C0.44289 13.0876 1.13833 12.0252 2.11477 11.277C3.0912 10.5287 4.29039 10.1392 5.51484 10.1726C6.55419 10.1818 7.56891 10.4938 8.4375 11.0713C7.71233 11.9855 7.18171 13.0415 6.87891 14.1729C6.57891 15.3254 6.62813 16.5015 6.62813 17.7156H6.32812C4.46484 17.7156 2.60156 17.7156 0.738281 17.7156C0.589071 17.7319 0.438482 17.7019 0.306582 17.6294C0.174682 17.557 0.0677368 17.4456 0 17.3101L0 14.8796Z" fill="#575654"/>
<path id="Vector_3" d="M15.4688 0C15.6609 0.0569099 15.8531 0.109077 16.043 0.168359C16.8612 0.410896 17.5662 0.942678 18.0295 1.66688C18.4928 2.39108 18.6836 3.25953 18.5672 4.11411C18.4275 4.96425 17.9966 5.73754 17.3499 6.29854C16.7033 6.85954 15.8822 7.17247 15.0305 7.18251C13.2422 7.21333 11.6719 5.96843 11.3648 4.26824C11.2805 3.7991 11.2888 3.31772 11.3893 2.85184C11.4897 2.38596 11.6803 1.94479 11.95 1.55376C12.2197 1.16273 12.5632 0.829576 12.9608 0.573489C13.3584 0.317401 13.8021 0.143447 14.2664 0.0616524C14.3174 0.0456177 14.3668 0.0249839 14.4141 0L15.4688 0Z" fill="#575654"/>
<path id="Vector_4" d="M15.1008 19.0908H8.45625C7.86094 19.0908 7.63125 18.8703 7.64063 18.2751C7.65703 17.2389 7.59609 16.1908 7.73438 15.1711C8.08594 12.5675 9.51563 10.7108 11.8172 9.55127C15.7594 7.56417 20.6484 9.52282 22.1695 13.6701C22.4489 14.4293 22.5972 15.2314 22.6078 16.0414C22.6195 16.7812 22.6078 17.521 22.6078 18.2632C22.6078 18.8655 22.3922 19.0884 21.8016 19.0884L15.1008 19.0908Z" fill="#575654"/>
<path id="Vector_5" d="M24.5531 8.5364C23.8096 8.54158 23.0939 8.25088 22.5603 7.72699C22.0267 7.20311 21.718 6.48802 21.7008 5.73596C21.7221 4.98087 22.0336 4.26394 22.569 3.73748C23.1045 3.21102 23.8217 2.9165 24.5684 2.9165C25.315 2.9165 26.0322 3.21102 26.5677 3.73748C27.1031 4.26394 27.4146 4.98087 27.4359 5.73596C27.4302 6.11189 27.3508 6.48294 27.2025 6.82766C27.0541 7.17238 26.8398 7.48394 26.5717 7.74434C26.3036 8.00474 25.9872 8.20881 25.6408 8.34476C25.2943 8.48071 24.9246 8.54585 24.5531 8.5364Z" fill="#575755"/>
<path id="Vector_6" d="M5.43281 8.79494C5.06112 8.80248 4.69164 8.73539 4.34573 8.59755C3.99983 8.45971 3.68437 8.25386 3.41759 7.99189C3.15082 7.72993 2.93803 7.41705 2.79152 7.07136C2.64502 6.72566 2.56771 6.35401 2.56406 5.9779C2.5854 5.22281 2.89688 4.50588 3.43233 3.97942C3.96777 3.45296 4.685 3.15845 5.43164 3.15845C6.17828 3.15845 6.89551 3.45296 7.43096 3.97942C7.9664 4.50588 8.27788 5.22281 8.29922 5.9779C8.28504 6.73495 7.9759 7.4557 7.43907 7.98328C6.90224 8.51087 6.18118 8.80258 5.43281 8.79494Z" fill="#575655"/>
</g>
</g>
</g>
<defs>
<clipPath id="clip0_518_157">
<rect width="30" height="19.0909" fill="white"/>
</clipPath>
</defs>
</svg>
