<svg width="60" height="33" viewBox="0 0 60 33" fill="none" xmlns="http://www.w3.org/2000/svg">
<g id="turtle_right 2" clip-path="url(#clip0_518_210)">
<g id="&#208;&#161;&#208;&#187;&#208;&#190;&#208;&#185; 2">
<g id="&#208;&#161;&#208;&#187;&#208;&#190;&#208;&#185; 1">
<path id="Vector" d="M60 14.7402C59.8922 15.1514 59.7969 15.5995 59.6767 16.023C59.1904 17.7855 58.1365 19.3421 56.6757 20.4555C55.2149 21.5689 53.4272 22.1782 51.5849 22.1905C48.7951 22.1905 46.0011 22.1905 43.2071 22.1905C42.8874 22.2198 42.5756 22.3061 42.2869 22.4454C41.3293 22.8154 40.3717 23.1896 39.4307 23.5967C39.2 23.691 39.0156 23.871 38.9167 24.0983C38.3423 26.06 37.2738 27.8443 35.8118 29.2831C34.9413 30.1465 34.0749 31.0141 33.2002 31.8734C31.6167 33.4317 29.685 33.3659 28.2258 31.7089C28.1798 31.6651 28.1314 31.6239 28.0807 31.5856C27.8196 31.824 27.575 32.0707 27.3014 32.2887C26.9621 32.5729 26.5652 32.7816 26.1377 32.9007C25.7101 33.0198 25.2617 33.0466 24.8228 32.9792C24.384 32.9118 23.9648 32.7517 23.5935 32.5099C23.2223 32.2681 22.9077 31.9501 22.671 31.5773C21.5974 29.7847 20.8015 27.8769 21.0129 25.6977C21.0668 25.0851 21.1911 24.4642 21.2906 23.8022C19.7858 23.8022 18.2728 23.8022 16.7556 23.8022C16.6437 23.8022 16.4737 23.9873 16.4364 24.1147C15.7686 26.3249 14.4992 28.3096 12.7677 29.8505C12.0423 30.5248 11.3334 31.2196 10.6578 31.9433C9.11982 33.6003 6.06469 33.4399 5.0698 30.4261C5.03028 30.3209 5.01225 30.2089 5.01675 30.0967C5.02126 29.9845 5.04821 29.8743 5.09604 29.7725C5.14387 29.6708 5.21163 29.5794 5.29537 29.5039C5.37911 29.4283 5.47716 29.37 5.58382 29.3324C5.78305 29.246 6.00854 29.2406 6.21169 29.3175C6.41485 29.3944 6.57941 29.5474 6.66991 29.7436C6.80671 29.9779 6.89376 30.2411 7.02641 30.4754C7.12151 30.6685 7.26123 30.8366 7.43419 30.966C7.60716 31.0955 7.80849 31.1825 8.02179 31.2202C8.2351 31.2579 8.45436 31.2451 8.66173 31.1828C8.8691 31.1205 9.05872 31.0106 9.21516 30.8619C10.4903 29.6912 11.7037 28.4561 12.8506 27.1614C13.747 26.1048 14.4026 24.8685 14.7725 23.5372C15.1424 22.2058 15.2179 20.811 14.9938 19.448C14.9614 19.2702 14.9185 19.0945 14.8653 18.9217C13.4144 18.9217 11.9926 18.9217 10.5666 18.9217C10.3791 18.9445 10.205 19.0301 10.0733 19.1643C9.182 20.0607 8.29075 20.9282 7.43266 21.8328C6.39678 22.9072 5.79109 24.3192 5.72891 25.8046C5.72891 25.9403 5.72891 26.076 5.69575 26.2158C5.68786 26.3289 5.65758 26.4394 5.60664 26.5409C5.5557 26.6424 5.48511 26.733 5.39888 26.8074C5.31266 26.8819 5.21249 26.9387 5.10411 26.9748C4.99572 27.0108 4.88124 27.0254 4.76719 27.0175C4.65314 27.0097 4.54177 26.9797 4.43942 26.9292C4.33708 26.8786 4.24577 26.8086 4.1707 26.7231C4.09564 26.6376 4.0383 26.5382 4.00195 26.4307C3.9656 26.3232 3.95095 26.2097 3.95884 26.0965C3.95949 24.7747 4.29443 23.4741 4.933 22.3138C5.0242 22.1453 5.11125 21.9767 5.11954 21.9602C4.34022 20.9118 3.6355 19.9496 2.90177 19.004C2.76877 18.8681 2.60339 18.7677 2.42091 18.712C1.63966 18.419 0.980141 17.8744 0.547976 17.1654C0.115811 16.4565 -0.0640029 15.6242 0.037328 14.8019C0.156643 13.9499 0.568606 13.1648 1.20371 12.579C1.83882 11.9933 2.65819 11.6427 3.52358 11.5866C3.79318 11.5423 4.0344 11.3946 4.19513 11.1754C5.59223 9.02601 7.29409 7.08735 9.24833 5.41911C12.893 2.34992 17.4134 0.486901 22.1777 0.0904319C28.603 -0.448193 34.3112 1.3856 39.2815 5.46845C39.3727 5.54246 39.468 5.60825 39.5136 5.53424C40.7572 4.98739 42.0008 4.3542 43.2983 3.92659C44.21 3.64215 45.1615 3.50336 46.1172 3.51543C47.9868 3.51543 49.848 3.56477 51.7217 3.74157C52.5644 3.88768 53.3821 4.15066 54.1509 4.52278C54.2745 4.5593 54.3883 4.62271 54.484 4.7084C54.5797 4.79408 54.6549 4.89988 54.7042 5.01807C54.7534 5.13626 54.7755 5.26386 54.7687 5.39157C54.7619 5.51928 54.7264 5.64387 54.6649 5.75627C54.6077 5.86151 54.5295 5.95408 54.435 6.02833C54.3405 6.10258 54.2317 6.15695 54.1154 6.18811C53.999 6.21928 53.8774 6.22659 53.7581 6.20961C53.6388 6.19262 53.5242 6.15169 53.4213 6.08931C52.0559 5.45296 50.5551 5.15524 49.048 5.22175C47.3152 5.27109 45.5741 5.09018 43.8621 5.55069C41.7789 6.10593 39.9515 7.35483 38.6865 9.0879C37.4215 10.821 36.7959 12.9328 36.9145 15.0691C37.0295 16.4838 37.6618 17.8079 38.6925 18.7924C39.7232 19.7768 41.0812 20.3536 42.5107 20.4143C45.6363 20.48 48.7619 20.5006 51.8834 20.4143C55.7552 20.3115 58.7274 16.6603 58.1926 12.8488C58.003 11.3065 57.4115 9.83985 56.4765 8.5933C56.0619 8.05056 56.1075 7.52838 56.5428 7.21179C56.978 6.89519 57.4796 7.03087 57.8942 7.56539C58.9546 8.93923 59.6412 10.5604 59.8881 12.2732C59.9166 12.4017 59.954 12.5281 60 12.6515V14.7402ZM35.0491 13.3422H4.17026C3.97542 13.3422 3.78059 13.3422 3.58576 13.3422C3.12398 13.3715 2.68794 13.5635 2.35632 13.8835C2.0247 14.2036 1.81935 14.6307 1.77733 15.0878C1.7353 15.5449 1.85936 16.0018 2.12712 16.3761C2.39489 16.7504 2.78872 17.0174 3.23755 17.1291C3.52593 17.1813 3.8194 17.2007 4.11222 17.1866H35.4346C35.3061 15.8915 35.1817 14.6539 35.0491 13.3422ZM31.9193 18.9382C30.4311 18.9382 29.0176 18.9382 27.5833 18.9382C27.3952 18.9621 27.2211 19.0491 27.09 19.1849C26.2153 20.0401 25.3323 20.8912 24.4867 21.7752C23.3784 22.9445 22.7527 24.4836 22.7332 26.0883C22.6752 27.6261 23.3177 28.9665 23.9436 30.2822C24.4577 31.3718 25.5438 31.5568 26.4309 30.6933C27.318 29.8299 28.1926 29.0487 28.9885 28.1359C29.7419 27.329 30.4075 26.4456 30.9742 25.5003C32.0771 23.4977 32.4128 21.167 31.9193 18.9382ZM31.9981 3.14949C27.0129 1.25206 21.4961 1.25206 16.511 3.14949C19.533 6.28667 28.4538 6.52514 31.9898 3.14949H31.9981ZM14.658 3.95126C11.1515 5.68161 8.18541 8.32514 6.07712 11.5989C8.07104 11.5989 9.94475 11.5989 11.8143 11.5989C11.9303 11.5823 12.0418 11.5428 12.1422 11.4827C12.2425 11.4227 12.3298 11.3434 12.3988 11.2494C13.6424 9.49375 14.886 7.72574 16.1296 5.96185C16.2498 5.79327 16.3576 5.61647 16.4613 5.46023L14.658 3.95126ZM34.1412 11.5701L30.4809 6.35657L25.1292 7.48727V11.5701H34.1412ZM14.3347 11.5701H23.297V7.33925C21.5886 7.25602 19.9035 6.91065 18.3018 6.31545C18.2242 6.30876 18.146 6.32057 18.0739 6.3499C18.0018 6.37922 17.9378 6.42521 17.8873 6.48403C16.7141 8.14513 15.5493 9.81445 14.3264 11.5619L14.3347 11.5701ZM33.5775 23.8187C33.2583 24.604 32.9805 25.3893 32.6323 26.1377C31.9089 27.5813 30.9076 28.8705 29.685 29.9327C29.6205 29.9737 29.5668 30.0292 29.5281 30.0947C29.4895 30.1602 29.467 30.2339 29.4626 30.3097C29.4581 30.3855 29.4718 30.4613 29.5025 30.5308C29.5333 30.6003 29.5802 30.6617 29.6394 30.7098C29.7637 30.8665 29.9202 30.9952 30.0984 31.0874C30.2767 31.1795 30.4727 31.233 30.6735 31.2443C30.8742 31.2556 31.075 31.2244 31.2627 31.1528C31.4503 31.0812 31.6204 30.9708 31.7618 30.829C32.3877 30.2452 33.0054 29.6531 33.5816 29.024C34.4628 28.1016 35.2931 27.1325 36.0688 26.1212C36.5186 25.3878 36.9041 24.6174 37.2212 23.8187H33.5775ZM16.8012 22.0589C18.5422 22.0589 20.1962 22.0589 21.8544 22.0589C22.02 22.0289 22.1681 21.9378 22.2689 21.804C22.7954 21.2078 23.2887 20.5705 23.8193 19.999C24.1237 19.6861 24.4447 19.3897 24.781 19.1109L24.6815 18.9957H16.8053L16.8012 22.0589ZM35.6501 10.6902L38.1705 6.70194L33.8759 3.87725L31.9898 5.45201L35.6501 10.6902ZM33.8179 22.0795C35.8906 21.952 37.8679 22.3221 39.924 21.6354C38.6268 21.0818 37.4959 20.2051 36.6409 19.0903C36.5647 19.0071 36.4595 18.9557 36.3466 18.9464C35.4926 18.9464 34.6387 18.9464 33.8179 18.9464V22.0795ZM4.88326 18.9546L6.12687 20.295L7.63163 18.9546H4.88326Z" fill="#464F6B" fill-opacity="0.85"/>
<path id="Vector_2" d="M48.4344 14.5758C48.0135 14.5852 47.5953 14.5061 47.2074 14.3439C46.8195 14.1816 46.4705 13.9397 46.1835 13.6342C46.0861 13.5602 46.0056 13.4665 45.9473 13.3595C45.8889 13.2524 45.8541 13.1343 45.845 13.0129C45.8359 12.8915 45.8528 12.7696 45.8945 12.6552C45.9363 12.5407 46.0019 12.4363 46.0872 12.3488C46.1725 12.2613 46.2755 12.1927 46.3894 12.1474C46.5033 12.1022 46.6256 12.0813 46.7482 12.0862C46.8708 12.0911 46.991 12.1216 47.1008 12.1759C47.2107 12.2301 47.3078 12.3067 47.3857 12.4007C48.1567 12.9969 48.5173 12.9969 49.2842 12.4007C49.3611 12.3029 49.4583 12.2225 49.5691 12.165C49.68 12.1076 49.802 12.0744 49.9269 12.0677C50.0518 12.061 50.1767 12.0809 50.2931 12.1261C50.4096 12.1714 50.5149 12.2409 50.602 12.3299C50.6891 12.419 50.7559 12.5255 50.798 12.6424C50.84 12.7592 50.8563 12.8836 50.8457 13.0072C50.8352 13.1309 50.798 13.2508 50.7367 13.3589C50.6754 13.4671 50.5915 13.561 50.4905 13.6342C50.2276 13.9182 49.9105 14.1477 49.5576 14.3093C49.2047 14.4709 48.8229 14.5615 48.4344 14.5758Z" fill="#464F6B" fill-opacity="0.85"/>
<path id="Vector_3" d="M43.3522 12.4705C43.3417 12.7208 43.3098 12.9698 43.2569 13.2147C43.1983 13.397 43.0793 13.5542 42.9192 13.6608C42.7591 13.7674 42.5674 13.8171 42.3751 13.8019C42.1829 13.7866 42.0016 13.7073 41.8606 13.5768C41.7196 13.4463 41.6273 13.2723 41.5987 13.0832C41.5717 12.7369 41.5717 12.3891 41.5987 12.0429C41.5858 11.9276 41.5977 11.8108 41.6336 11.7004C41.6695 11.5899 41.7285 11.4882 41.8068 11.402C41.8851 11.3158 41.9809 11.247 42.088 11.2001C42.195 11.1533 42.3108 11.1294 42.4278 11.1301C42.5454 11.1262 42.6626 11.1461 42.7722 11.1885C42.8818 11.231 42.9815 11.2951 43.0653 11.3771C43.1491 11.459 43.2152 11.5571 43.2595 11.6652C43.3038 11.7733 43.3255 11.8892 43.3232 12.0059C43.3315 12.1607 43.3315 12.3158 43.3232 12.4705H43.3522Z" fill="#464F6B" fill-opacity="0.85"/>
<path id="Vector_4" d="M55.0961 12.4787C55.0961 13.4203 54.8225 13.8315 54.2048 13.815C53.5872 13.7986 53.3426 13.4038 53.3426 12.4952C53.3322 12.3213 53.3322 12.1469 53.3426 11.973C53.3451 11.8563 53.3715 11.7414 53.42 11.6351C53.4686 11.5288 53.5384 11.4334 53.6252 11.3547C53.712 11.2759 53.814 11.2154 53.925 11.1768C54.036 11.1382 54.1538 11.1223 54.2711 11.1301C54.3844 11.1333 54.4959 11.1588 54.5991 11.2051C54.7023 11.2514 54.7952 11.3176 54.8723 11.3999C54.9495 11.4821 55.0094 11.5788 55.0485 11.6843C55.0876 11.7897 55.1052 11.9019 55.1002 12.0141C55.1044 12.1704 55.0961 12.3348 55.0961 12.4787Z" fill="#464F6B" fill-opacity="0.85"/>
<path id="Vector_5" d="M8.05031 25.4593C7.82658 25.4593 7.61201 25.3712 7.45381 25.2143C7.2956 25.0573 7.20673 24.8445 7.20673 24.6226C7.20673 24.4007 7.2956 24.1879 7.45381 24.031C7.61201 23.874 7.82658 23.7859 8.05031 23.7859C8.27404 23.7859 8.48861 23.874 8.64681 24.031C8.80501 24.1879 8.89389 24.4007 8.89389 24.6226C8.89389 24.8445 8.80501 25.0573 8.64681 25.2143C8.48861 25.3712 8.27404 25.4593 8.05031 25.4593Z" fill="#464F6B" fill-opacity="0.85"/>
<path id="Vector_6" d="M26.1738 29.135C25.9451 29.135 25.7258 29.0449 25.5641 28.8845C25.4024 28.7241 25.3116 28.5066 25.3116 28.2798C25.3116 28.053 25.4024 27.8354 25.5641 27.6751C25.7258 27.5147 25.9451 27.4246 26.1738 27.4246C26.287 27.4246 26.3992 27.4467 26.5038 27.4897C26.6084 27.5326 26.7034 27.5956 26.7835 27.6751C26.8636 27.7545 26.9271 27.8487 26.9704 27.9525C27.0138 28.0563 27.0361 28.1675 27.0361 28.2798C27.0361 28.3921 27.0138 28.5033 26.9704 28.6071C26.9271 28.7108 26.8636 28.8051 26.7835 28.8845C26.7034 28.9639 26.6084 29.0269 26.5038 29.0699C26.3992 29.1129 26.287 29.135 26.1738 29.135Z" fill="#464F6B" fill-opacity="0.85"/>
<path id="Vector_7" d="M28.6528 24.4889C28.8765 24.4927 29.0895 24.5845 29.245 24.7441C29.4005 24.9038 29.4857 25.1181 29.4818 25.34C29.478 25.5619 29.3854 25.7732 29.2245 25.9274C29.0636 26.0817 28.8475 26.1661 28.6238 26.1623C28.513 26.1604 28.4037 26.1369 28.302 26.0931C28.2004 26.0493 28.1085 25.9861 28.0315 25.9071C27.9545 25.8281 27.894 25.7348 27.8533 25.6325C27.8127 25.5303 27.7928 25.4211 27.7947 25.3112C27.7966 25.2013 27.8203 25.0929 27.8644 24.9921C27.9086 24.8913 27.9723 24.8001 28.052 24.7238C28.1317 24.6474 28.2258 24.5874 28.3288 24.5471C28.4319 24.5068 28.542 24.487 28.6528 24.4889Z" fill="#464F6B" fill-opacity="0.85"/>
</g>
</g>
</g>
<defs>
<clipPath id="clip0_518_210">
<rect width="60" height="33" fill="white"/>
</clipPath>
</defs>
</svg>
