<svg width="30" height="18" viewBox="0 0 30 18" fill="none" xmlns="http://www.w3.org/2000/svg">
<g id="bar 2" clip-path="url(#clip0_518_172)">
<g id="&#208;&#161;&#208;&#187;&#208;&#190;&#208;&#185; 2">
<g id="&#208;&#161;&#208;&#187;&#208;&#190;&#208;&#185; 1">
<path id="Vector" d="M14.9694 2.1314H1.13308C0.986252 2.14319 0.838568 2.1241 0.699648 2.07538C0.560729 2.02665 0.433688 1.94939 0.326798 1.84862C0.219907 1.74785 0.135564 1.62582 0.0792581 1.49049C0.0229525 1.35517 -0.00405281 1.20956 4.94038e-07 1.06317C4.94038e-07 0.432862 0.460873 0 1.14327 0H28.7498C29.5137 0 29.8829 0.334139 29.9847 0.896101C30.0073 1.03913 30.0005 1.18523 29.9648 1.32559C29.9291 1.46595 29.8652 1.59768 29.777 1.71285C29.6887 1.82802 29.5779 1.92425 29.4513 1.99574C29.3246 2.06724 29.1848 2.11252 29.0401 2.12887C28.928 2.12887 28.816 2.12887 28.704 2.12887L14.9694 2.1314Z" fill="white"/>
<path id="Vector_2" d="M14.944 9.59379H1.14073C0.463421 9.59379 2.62909e-06 9.16346 2.62909e-06 8.53315C-0.00364929 8.38654 0.0236947 8.24079 0.080266 8.10534C0.136837 7.96989 0.221376 7.84775 0.328416 7.74683C0.435455 7.6459 0.562611 7.56844 0.70166 7.51944C0.840708 7.47044 0.988553 7.45101 1.13563 7.46239C10.348 7.46239 19.5603 7.46239 28.7727 7.46239C29.5366 7.46239 29.8727 7.80919 29.972 8.31799C30.0044 8.46965 30.0026 8.62657 29.9666 8.77744C29.9306 8.92831 29.8614 9.06936 29.764 9.19043C29.6666 9.3115 29.5433 9.40957 29.4032 9.47757C29.263 9.54557 29.1094 9.58181 28.9535 9.58367H14.9491L14.944 9.59379Z" fill="white"/>
<path id="Vector_3" d="M14.9669 17.0564H1.13055C0.981835 17.072 0.831474 17.0566 0.689128 17.011C0.546781 16.9655 0.415599 16.8908 0.304011 16.7918C0.192423 16.6929 0.102899 16.5718 0.0411937 16.4364C-0.0205121 16.3009 -0.0530348 16.1542 -0.0542839 16.0055C-0.055533 15.8568 -0.025481 15.7096 0.0339407 15.5731C0.0933623 15.4367 0.180839 15.3142 0.290748 15.2134C0.400657 15.1125 0.530567 15.0357 0.672128 14.9878C0.813689 14.9399 0.963769 14.9219 1.11272 14.9351C10.3387 14.9351 19.5629 14.9351 28.7854 14.9351C29.4857 14.9351 29.8727 15.2515 29.9745 15.8034C30.0049 15.9485 30.0042 16.0984 29.9724 16.2433C29.9407 16.3881 29.8786 16.5247 29.7902 16.6441C29.7018 16.7635 29.5891 16.8631 29.4594 16.9363C29.3297 17.0095 29.186 17.0547 29.0375 17.069C28.9255 17.069 28.8135 17.069 28.7014 17.069L14.9669 17.0564Z" fill="white"/>
</g>
</g>
</g>
<defs>
<clipPath id="clip0_518_172">
<rect width="30" height="17.0588" fill="white"/>
</clipPath>
</defs>
</svg>
