<svg width="5" height="9" viewBox="0 0 5 9" fill="none" xmlns="http://www.w3.org/2000/svg">
<g id="angle_right 1" clip-path="url(#clip0_243_37)">
<g id="&#208;&#161;&#208;&#187;&#208;&#190;&#208;&#185; 2">
<g id="&#208;&#161;&#208;&#187;&#208;&#190;&#208;&#185; 1">
<path id="Vector" d="M3.68446 4.49631C3.62071 4.4448 3.58014 4.41831 3.54682 4.38445L0.195617 0.989033C0.0871643 0.892289 0.0200853 0.756426 0.0086133 0.610272C-0.00285872 0.464118 0.042179 0.319174 0.13417 0.206194C0.226162 0.0932142 0.357868 0.0210898 0.501343 0.00512388C0.644818 -0.010842 0.788771 0.0306071 0.902659 0.120676C0.936578 0.148275 0.968532 0.178276 0.998283 0.210456L4.76531 4.03711C5.07246 4.34766 5.07102 4.65085 4.76531 4.96287C3.50384 6.24431 2.24092 7.52526 0.97655 8.80571C0.919648 8.87266 0.848073 8.9251 0.767584 8.95882C0.687094 8.99255 0.599936 9.00661 0.513121 8.99988C0.426306 8.99315 0.342258 8.96582 0.267736 8.92008C0.193215 8.87434 0.130301 8.81148 0.0840556 8.73654C0.0224831 8.63733 -0.00673829 8.52092 0.000544582 8.40387C0.00782746 8.28682 0.0512441 8.17508 0.124624 8.08454C0.160845 8.04038 0.201413 8.00064 0.241981 7.95943L3.54537 4.61111C3.58014 4.57726 3.62216 4.54929 3.68446 4.49631Z" fill="#417B65"/>
</g>
</g>
</g>
<defs>
<clipPath id="clip0_243_37">
<rect width="5" height="9" fill="white"/>
</clipPath>
</defs>
</svg>
