<svg width="5" height="9" viewBox="0 0 5 9" fill="none" xmlns="http://www.w3.org/2000/svg">
<g id="angle_right 2" clip-path="url(#clip0_243_41)">
<g id="&#208;&#161;&#208;&#187;&#208;&#190;&#208;&#185; 2">
<g id="&#208;&#161;&#208;&#187;&#208;&#190;&#208;&#185; 1">
<path id="Vector" d="M1.31554 4.49631C1.37929 4.4448 1.41986 4.41831 1.45318 4.38445L4.80438 0.989033C4.91284 0.892289 4.97991 0.756426 4.99139 0.610272C5.00286 0.464118 4.95782 0.319174 4.86583 0.206194C4.77384 0.0932142 4.64213 0.0210898 4.49866 0.00512388C4.35518 -0.010842 4.21123 0.0306071 4.09734 0.120676C4.06342 0.148275 4.03147 0.178276 4.00172 0.210456L0.234693 4.03711C-0.0724649 4.34766 -0.0710158 4.65085 0.234693 4.96287C1.49616 6.24431 2.75908 7.52526 4.02345 8.80571C4.08035 8.87266 4.15193 8.9251 4.23242 8.95882C4.31291 8.99255 4.40006 9.00661 4.48688 8.99988C4.57369 8.99315 4.65774 8.96582 4.73226 8.92008C4.80678 8.87434 4.8697 8.81148 4.91594 8.73654C4.97752 8.63733 5.00674 8.52092 4.99946 8.40387C4.99217 8.28682 4.94876 8.17508 4.87538 8.08454C4.83916 8.04038 4.79859 8.00064 4.75802 7.95943L1.45463 4.61111C1.41986 4.57726 1.37784 4.54929 1.31554 4.49631Z" fill="#417B65"/>
</g>
</g>
</g>
<defs>
<clipPath id="clip0_243_41">
<rect width="5" height="9" fill="white" transform="matrix(-1 0 0 1 5 0)"/>
</clipPath>
</defs>
</svg>
